<svg xmlns="http://www.w3.org/2000/svg" version="1.1" xmlnsXlink="http://www.w3.org/1999/xlink" xmlnsSvgjs="http://svgjs.dev/svgjs" width="100%" height="100%" viewBox="0 0 1000 600"><rect width="1000" height="600" x="0" y="0" fill="#0a192f"/><g><rect width="333.3333333333333" height="333.3333333333333" y="193.5530186281986" fill="#ccd6f6" transform="matrix(0.7295828137648432,0,0,0.7295828137648434,0,37.18990842908582)" x="171.3307952880859"/><path d="M285.7865296525839 396.8319002904624L285.7865296525839 396.8319002904624Q285.7865296525839 404.3744554733305 282.9397286691667 410.9778598163085Q280.0929276857496 417.58126415928643 275.1623857763261 422.5411545324565Q270.2024954031559 427.5010449056266 263.5403941326849 430.3184974252972Q256.8782928622138 433.1652984087143 249.36508614309227 433.1652984087143L249.36508614309227 433.1652984087143L202.52493800356885 433.1652984087143L202.52493800356885 285.21969266226216L249.36508614309227 285.21969266226216Q256.8782928622138 285.21969266226216 263.5403941326849 288.0371451819327Q270.2024954031559 290.8839461653499 275.1623857763261 295.84383653851995Q280.0929276857496 300.7743784479435 282.9397286691667 307.43647971841455Q285.7865296525839 314.0985809888856 285.7865296525839 321.6411361717537L285.7865296525839 321.6411361717537L285.7865296525839 323.0792108953357Q285.7865296525839 328.3325859059714 284.37780339274855 333.1457339604086Q282.9984255966599 337.9295335510993 280.41576078696187 342.0676669393655Q277.83309597726384 346.17645186388506 274.3112803276756 349.5515251947405Q270.81881314183386 352.89725006184926 266.4752405073417 355.157081770335L266.4752405073417 355.157081770335Q270.81881314183386 357.4462619425674 274.3112803276756 360.79198680967625Q277.83309597726384 364.1377116767851 280.41576078696187 368.30519352879776Q282.9984255966599 372.50202384455713 284.37780339274855 377.2858234352477Q285.7865296525839 382.098971489685 285.7865296525839 387.3523465003208L285.7865296525839 387.3523465003208L285.7865296525839 396.8319002904624ZM272.4623271116418 396.8319002904624L272.4623271116418 385.1805601830747Q272.4623271116418 380.2206698099046 270.6133738956079 375.96514256665216Q268.7644206795741 371.6802668596532 265.506741203705 368.48128431127725Q262.24906172783585 365.28230176290117 257.9641860208369 363.4040000831209Q253.67931031383787 361.55504686708707 248.74876840441434 361.55504686708707L248.74876840441434 361.55504686708707L215.81979208076442 361.55504686708707L215.81979208076442 420.48676207019673L248.74876840441434 420.48676207019673Q253.67931031383787 420.48676207019673 257.9641860208369 418.6084603904163Q262.24906172783585 416.7595071743825 265.506741203705 413.56052462600655Q268.7644206795741 410.3615420776306 270.6133738956079 406.07666637063153Q272.4623271116418 401.79179066363247 272.4623271116418 396.8319002904624L272.4623271116418 396.8319002904624ZM272.4623271116418 325.13360335759546L272.4623271116418 321.6411361717537Q272.4623271116418 316.68124579858363 270.6133738956079 312.3963700915847Q268.7644206795741 308.1114943845856 265.506741203705 304.8538149087165Q262.24906172783585 301.625483896594 257.9641860208369 299.7471822168136Q253.67931031383787 297.8982290007798 248.74876840441434 297.8982290007798L248.74876840441434 297.8982290007798L215.81979208076442 297.8982290007798L215.81979208076442 348.8765105285694L248.74876840441434 348.8765105285694Q253.67931031383787 348.8765105285694 257.9641860208369 346.998208848789Q262.24906172783585 345.14925563275517 265.506741203705 341.8915761568861Q268.7644206795741 338.66324514476355 270.6133738956079 334.3783694377645Q272.4623271116418 330.09349373076554 272.4623271116418 325.13360335759546L272.4623271116418 325.13360335759546ZM377.50047886061066 404.1690162271045L377.50047886061066 404.1690162271045Q377.50047886061066 410.56698132385657 375.0645563696455 416.2312348269443Q372.65798234242686 421.9248367937786 368.431803562921 426.15101557328444Q364.20562478341515 430.3771943527903 358.51202281658084 432.81311684375555Q352.84776931349313 435.2196908709741 346.4498042167411 435.2196908709741L346.4498042167411 435.2196908709741L337.99744665772937 435.2196908709741Q331.59948156097744 435.2196908709741 325.90587959414313 432.81311684375555Q320.2416260910554 430.3771943527903 316.01544731154956 426.15101557328444Q311.7892685320436 421.9248367937786 309.35334604107845 416.2312348269443Q306.9174235501133 410.56698132385657 306.9174235501133 404.1690162271045L306.9174235501133 404.1690162271045L306.9174235501133 356.5071111026772Q306.9174235501133 350.10914600592525 309.35334604107845 344.44489250283755Q311.7892685320436 338.75129053600324 316.01544731154956 334.5251117564974Q320.2416260910554 330.2989329769915 325.90587959414313 327.86301048602627Q331.59948156097744 325.4564364588076 337.99744665772937 325.4564364588076L337.99744665772937 325.4564364588076L346.4498042167411 325.4564364588076Q352.84776931349313 325.4564364588076 358.51202281658084 327.86301048602627Q364.20562478341515 330.2989329769915 368.431803562921 334.5251117564974Q372.65798234242686 338.75129053600324 375.0645563696455 344.44489250283755Q377.50047886061066 350.10914600592525 377.50047886061066 356.5071111026772L377.50047886061066 356.5071111026772L377.50047886061066 381.3652598960208L319.6253083523775 381.3652598960208L319.6253083523775 404.90272782076875Q319.6253083523775 408.71802810782265 321.06338307595934 412.0637529749315Q322.5014577995412 415.40947784204036 324.9960772179995 417.9040972604987Q327.46134817271127 420.36936821521044 330.80707303982 421.8074429387923Q334.18214637067547 423.24551766237414 337.99744665772937 423.24551766237414L337.99744665772937 423.24551766237414L346.4498042167411 423.24551766237414Q350.265104503795 423.24551766237414 353.61082937090384 421.8074429387923Q356.9565542380127 420.36936821521044 359.45117365647104 417.9040972604987Q361.9164446111828 415.40947784204036 363.35451933476463 412.0637529749315Q364.8219425220931 408.71802810782265 364.8219425220931 404.90272782076875L364.8219425220931 404.90272782076875L364.8219425220931 397.8884449853389L377.50047886061066 399.94283744759866L377.50047886061066 404.1690162271045ZM364.8219425220931 371.47482761342724L364.8219425220931 355.77339950901296Q364.8219425220931 351.95809922195906 363.35451933476463 348.6123743548503Q361.9164446111828 345.26664948774146 359.45117365647104 342.7720300692831Q356.9565542380127 340.3067591145714 353.61082937090384 338.86868439098953Q350.265104503795 337.4012612036611 346.4498042167411 337.4012612036611L346.4498042167411 337.4012612036611L337.99744665772937 337.4012612036611Q334.18214637067547 337.4012612036611 330.80707303982 338.86868439098953Q327.46134817271127 340.3067591145714 324.9960772179995 342.7720300692831Q322.5014577995412 345.26664948774146 321.06338307595934 348.6123743548503Q319.6253083523775 351.95809922195906 319.6253083523775 355.77339950901296L319.6253083523775 355.77339950901296L319.6253083523775 371.47482761342724L364.8219425220931 371.47482761342724ZM473.46995531188986 433.1652984087143L460.7620705096257 433.1652984087143L460.7620705096257 355.77339950901296Q460.7620705096257 351.95809922195906 459.32399578604384 348.6123743548503Q457.885921062462 345.26664948774146 455.39130164400365 342.7720300692831Q452.9260306892919 340.3067591145714 449.58030582218305 338.86868439098953Q446.2052324913277 337.4012612036611 442.3899322042738 337.4012612036611L442.3899322042738 337.4012612036611L433.9375746452621 337.4012612036611Q430.1222743582081 337.4012612036611 426.77654949109933 338.86868439098953Q423.4308246239905 340.3067591145714 420.93620520553213 342.7720300692831Q418.4709342508204 345.26664948774146 417.03285952723854 348.6123743548503Q415.5654363399101 351.95809922195906 415.5654363399101 355.77339950901296L415.5654363399101 355.77339950901296L415.5654363399101 433.1652984087143L402.8869000013925 433.1652984087143L402.8869000013925 327.5108289210675L407.1130787808984 327.5108289210675L414.03931622508856 338.2523666523116Q418.3535403958341 332.3533254392513 424.8982478113189 328.89020671715616Q431.47230369055023 325.4564364588076 439.19094965589784 325.4564364588076L439.19094965589784 325.4564364588076L442.3899322042738 325.4564364588076Q448.78789730102574 325.4564364588076 454.48149926786004 327.86301048602627Q460.14575277094775 330.2989329769915 464.3719315504536 334.5251117564974Q468.59811032995947 338.75129053600324 471.0340328209247 344.44489250283755Q473.46995531188986 350.10914600592525 473.46995531188986 356.5071111026772L473.46995531188986 356.5071111026772L473.46995531188986 433.1652984087143Z " fill="#0a192f" transform="matrix(0.7295828137648432,0,0,0.7295828137648434,0,37.18990842908582)"/><path d="M672.1734511689326 395.04215684947985L672.1734511689326 399.4130561419131Q672.1734511689326 406.82332249199874 669.1630304642105 413.3362519012536Q666.1526097594882 419.84918131050847 661.1159443496643 424.7411149556822Q656.0792789398406 429.6330486008559 649.4216177659356 432.4408448350679Q642.7639565920306 435.21969471635 635.3247438890149 435.21969471635L635.3247438890149 435.21969471635L624.8461641283471 435.21969471635Q617.4069514253316 435.21969471635 610.7492902514265 432.4408448350679Q604.0916290775216 429.6330486008559 599.0549636676977 424.7411149556822Q594.018298257874 419.84918131050847 591.0078775531517 413.3362519012536Q587.9974568484295 406.82332249199874 587.9974568484295 399.4130561419131L587.9974568484295 399.4130561419131L587.9974568484295 393.59483920297873L601.1391010786593 391.48175543908724L601.1391010786593 399.4130561419131Q601.1391010786593 404.3049897870868 603.1074530779008 408.5022109619399Q605.1047514300723 412.7283784897231 608.4625283699548 415.94142366495555Q611.8203053098374 419.154468840188 616.2490973081307 420.9780890747793Q620.6778893064239 422.8017093093707 625.5698229515978 422.8017093093707L625.5698229515978 422.8017093093707L634.7168704774846 422.8017093093707Q639.6088041226582 422.8017093093707 643.9797034150914 420.9780890747793Q648.3506027075248 419.154468840188 651.7083796474072 415.94142366495555Q655.0661565872898 412.7283784897231 657.0634549394613 408.5022109619399Q659.0318069387027 404.3049897870868 659.0318069387027 399.4130561419131L659.0318069387027 399.4130561419131L659.0318069387027 395.04215684947985Q659.0318069387027 387.4871587347442 656.0792789398406 382.50838603078046Q653.1267509409784 377.52961332681673 648.2637636487347 374.027104622284Q643.3718300035611 370.4956495648214 637.2062568294665 368.0641559186996Q631.0696300083018 365.6326622725778 624.5567005990468 363.1722222735259Q618.043771189792 360.7407286274041 611.8781980156974 357.78820062854186Q605.7126248416027 354.8356726296797 600.820691196429 350.40688063138634Q595.9577039041855 345.97808863309297 593.0051759053232 339.58094463555824Q590.052647906461 333.1548542850934 590.052647906461 323.8051822886964L590.052647906461 323.8051822886964L590.052647906461 321.0552787603443Q590.052647906461 313.6160660573287 592.8314977877432 307.1031366480738Q595.6392940219552 300.5902072388189 600.5312276671289 295.69827359364524Q605.4231613123026 290.8352863014016 611.9650370744874 288.0274900671895Q618.5358591896023 285.2196938329774 625.975071892618 285.2196938329774L625.975071892618 285.2196938329774L635.3247438890149 285.2196938329774Q642.7639565920306 285.2196938329774 649.2768860012854 288.0274900671895Q655.7898154105404 290.8352863014016 660.681749055714 295.69827359364524Q665.5447363479576 300.5902072388189 668.3525325821698 307.1031366480738Q671.1603288163818 313.6160660573287 671.1603288163818 321.0552787603443L671.1603288163818 321.0552787603443L671.1603288163818 324.8183046412471L658.0186845861521 326.9603347580687L658.0186845861521 321.0552787603443Q658.0186845861521 316.1633451151706 656.1950643515606 311.9371775873874Q654.3714441169693 307.7110100596043 651.2162916475969 304.5558575902319Q648.0611391782246 301.4007051208595 643.8349716504414 299.57708488626815Q639.6088041226582 297.7534646516768 634.7168704774846 297.7534646516768L634.7168704774846 297.7534646516768L626.5829453041484 297.7534646516768Q621.6910116589748 297.7534646516768 617.4648441311916 299.57708488626815Q613.2386766034084 301.4007051208595 610.0545777811061 304.5558575902319Q606.8415326058736 307.7110100596043 605.0179123712823 311.9371775873874Q603.1653457837609 316.1633451151706 603.1653457837609 321.0552787603443L603.1653457837609 321.0552787603443L603.1653457837609 323.8051822886964Q603.1653457837609 330.8101996977616 606.1178737826231 335.6152942841452Q609.0704017814853 340.39144251759876 613.962335426659 343.80711216334134Q618.8542690718326 347.1938354561539 624.9908958929972 349.68322180813584Q631.1564690670918 352.20155451304765 637.6693984763468 354.7777799238196Q644.1823278856017 357.38295168752154 650.3479010596963 360.48021145103394Q656.4845278808608 363.5774712145462 661.3764615260346 368.1220486245596Q666.2683951712082 372.637679681643 669.2209231700705 379.1506090908979Q672.1734511689326 385.66353850015275 672.1734511689326 395.04215684947985L672.1734511689326 395.04215684947985ZM765.7859565446229 433.1934500112485L753.2811320788535 433.1934500112485L753.2811320788535 356.8619173347812Q753.2811320788535 353.0988914538783 751.8627607852825 349.79900721985587Q750.4154431387814 346.4991229858334 747.9839494926596 344.0386829867815Q745.5524558465377 341.6071893406597 742.2236252595852 340.1888180470886Q738.9237410255628 338.7415004005876 735.1607151446599 338.7415004005876L735.1607151446599 338.7415004005876L726.8241655008137 338.7415004005876Q723.0611396199108 338.7415004005876 719.7323090329584 340.1888180470886Q716.4324247989359 341.6071893406597 714.000931152814 344.0386829867815Q711.5404911537622 346.4991229858334 710.1221198601911 349.79900721985587Q708.7037485666201 353.0988914538783 708.7037485666201 356.8619173347812L708.7037485666201 356.8619173347812L708.7037485666201 433.1934500112485L696.1989241008507 433.1934500112485L696.1989241008507 287.2748848910089L708.7037485666201 287.2748848910089L708.7037485666201 337.7283780480368Q712.9878088002633 332.66276628528306 718.9797038567779 329.7970773452108Q724.9715989132923 326.9603347580687 732.0055626752876 326.9603347580687L732.0055626752876 326.9603347580687L735.1607151446599 326.9603347580687Q741.4710200834047 326.9603347580687 747.0576661988989 329.3339356983305Q752.6732586673231 331.7364829915223 756.8415334892462 335.9047578134455Q761.0098083111693 340.0730326353686 763.4123556043612 345.6886251037928Q765.7859565446229 351.275271219287 765.7859565446229 357.5855761580317L765.7859565446229 357.5855761580317L765.7859565446229 433.1934500112485ZM860.440530625794 433.1934500112485L856.2722558038708 433.1934500112485L849.3540774535957 422.8017093093707Q845.0700172199524 428.41730177779493 838.6439268694876 431.8329714235375Q832.2467828719529 435.21969471635 824.6049456984271 435.21969471635L824.6049456984271 435.21969471635L821.4497932290546 435.21969471635Q815.13948829031 435.21969471635 809.5528421748159 432.8460937760882Q803.9661960593216 430.4435464828964 799.7689748844684 426.2752716609733Q795.6007000625453 422.1069968390501 793.2270991222836 416.491404370626Q790.8245518290917 410.9047582551317 790.8245518290917 404.594453316387L790.8245518290917 404.594453316387L790.8245518290917 403.5813309638362Q790.8245518290917 397.2710260250915 793.2270991222836 391.6843799095973Q795.6007000625453 386.0687874411731 799.7689748844684 381.90051261925Q803.9661960593216 377.7322377973269 809.5528421748159 375.3296905041351Q815.13948829031 372.9560895638733 821.4497932290546 372.9560895638733L821.4497932290546 372.9560895638733L847.9067598070947 372.9560895638733L847.9067598070947 356.8619173347812Q847.9067598070947 353.0988914538783 846.4883885135235 349.79900721985587Q845.0700172199524 346.4991229858334 842.6385235738306 344.0386829867815Q840.1780835747788 341.6071893406597 836.8781993407563 340.1888180470886Q833.5783151067338 338.7415004005876 829.8152892258311 338.7415004005876L829.8152892258311 338.7415004005876L822.4629155816054 338.7415004005876Q818.6998897007027 338.7415004005876 815.4000054666801 340.1888180470886Q812.1001212326577 341.6071893406597 809.6396812336059 344.0386829867815Q807.208187587484 346.4991229858334 805.789816293913 349.79900721985587Q804.3714450003419 353.0988914538783 804.3714450003419 356.8619173347812L804.3714450003419 356.8619173347812L804.3714450003419 360.62494321568397L791.8376741816425 358.5986985105825L791.8376741816425 357.5855761580317Q791.8376741816425 351.275271219287 794.2402214748342 345.6886251037928Q796.6138224150961 340.0730326353686 800.8110435899492 335.9047578134455Q804.9793184118723 331.7364829915223 810.5659645273665 329.3339356983305Q816.1526106428607 326.9603347580687 822.4629155816054 326.9603347580687L822.4629155816054 326.9603347580687L829.8152892258311 326.9603347580687Q836.1255941645758 326.9603347580687 841.7122402800699 329.3339356983305Q847.2988863955641 331.7364829915223 851.4671612174873 335.9047578134455Q855.6643823923405 340.0730326353686 858.0379833326022 345.6886251037928Q860.440530625794 351.275271219287 860.440530625794 357.5855761580317L860.440530625794 357.5855761580317L860.440530625794 433.1934500112485ZM847.9067598070947 405.3181121396376L847.9067598070947 382.7110105012906L821.4497932290546 382.7110105012906Q817.6867673481519 382.7110105012906 814.3868831141294 384.1293817948616Q811.0869988801069 385.57669944136273 808.6265588810552 388.06608579334454Q806.1950652349333 390.55547214532646 804.7766939413622 393.8553563793489Q803.329376294861 397.15524061337146 803.329376294861 400.94721284720424L803.329376294861 400.94721284720424L803.329376294861 405.3181121396376Q803.329376294861 409.0811380205404 804.7766939413622 412.3810222545628Q806.1950652349333 415.6809064885854 808.6265588810552 418.1413464876372Q811.0869988801069 420.572840133759 814.3868831141294 421.9912114273301Q817.6867673481519 423.4095827209011 821.4497932290546 423.4095827209011L821.4497932290546 423.4095827209011L829.8152892258311 423.4095827209011Q833.5783151067338 423.4095827209011 836.8781993407563 421.9912114273301Q840.1780835747788 420.572840133759 842.6385235738306 418.1413464876372Q845.0700172199524 415.6809064885854 846.4883885135235 412.3810222545628Q847.9067598070947 409.0811380205404 847.9067598070947 405.3181121396376L847.9067598070947 405.3181121396376ZM1007.9800915101148 433.1934500112485L995.4752670443454 433.1934500112485L995.4752670443454 356.8619173347812Q995.4752670443454 353.0988914538783 994.0568957507743 349.79900721985587Q992.6385244572032 346.4991229858334 990.1780844581514 344.0386829867815Q987.7465908120296 341.6071893406597 984.446706578007 340.1888180470886Q981.1178759910546 338.7415004005876 977.3548501101518 338.7415004005876L977.3548501101518 338.7415004005876L971.1603305831271 338.7415004005876Q967.3973047022242 338.7415004005876 964.0684741152718 340.1888180470886Q960.7685898812492 341.6071893406597 958.2792035292675 344.0386829867815Q955.7898171772856 346.4991229858334 954.3714458837144 349.79900721985587Q952.9241282372134 353.0988914538783 952.9241282372134 356.8619173347812L952.9241282372134 356.8619173347812L952.9241282372134 433.1934500112485L940.5350891831641 433.1934500112485L940.5350891831641 356.8619173347812Q940.5350891831641 353.0988914538783 939.087771536663 349.79900721985587Q937.669400243092 346.4991229858334 935.1800138911101 344.0386829867815Q932.6906275391283 341.6071893406597 929.3907433051058 340.1888180470886Q926.0619127181533 338.7415004005876 922.2988868372504 338.7415004005876L922.2988868372504 338.7415004005876L916.1043673102258 338.7415004005876Q912.3413414293229 338.7415004005876 909.0125108423704 340.1888180470886Q905.7126266083479 341.6071893406597 903.2811329622261 344.0386829867815Q900.8206929631742 346.4991229858334 899.4023216696032 349.79900721985587Q897.9839503760322 353.0988914538783 897.9839503760322 356.8619173347812L897.9839503760322 356.8619173347812L897.9839503760322 433.1934500112485L885.4791259102628 433.1934500112485L885.4791259102628 328.9865794631703L889.6474007321859 328.9865794631703L896.449793670741 339.58094463555824Q900.7338539043842 333.76272769662387 907.1888906077791 330.3470580508813Q913.6439273111739 326.9603347580687 921.2857644846997 326.9603347580687L921.2857644846997 326.9603347580687L922.2988868372504 326.9603347580687Q931.156470833837 326.9603347580687 938.2772736546224 331.3312340505021Q945.3980764754078 335.7021333429353 949.2768877680307 342.9387215754407L949.2768877680307 342.9387215754407Q951.2162934143422 339.3783201650481 954.0530360014843 336.42579216618583Q956.9187249415564 333.4732641673236 960.363340940229 331.3891267563621Q963.8369032918316 329.3049893454005 967.8893927020347 328.11818887526965Q971.9708284651676 326.9603347580687 976.3417277576009 326.9603347580687L976.3417277576009 326.9603347580687L977.3548501101518 326.9603347580687Q983.6651550488964 326.9603347580687 989.2807475173206 329.3339356983305Q994.8673936328149 331.7364829915223 999.035668454738 335.9047578134455Q1003.2039432766612 340.0730326353686 1005.6064905698529 345.6886251037928Q1007.9800915101148 351.275271219287 1007.9800915101148 357.5855761580317L1007.9800915101148 357.5855761580317L1007.9800915101148 433.1934500112485ZM1102.6346655912857 433.1934500112485L1098.4663907693625 433.1934500112485L1091.5482124190876 422.8017093093707Q1087.2641521854443 428.41730177779493 1080.8670081879095 431.8329714235375Q1074.4409178374449 435.21969471635 1066.799080663919 435.21969471635L1066.799080663919 435.21969471635L1063.6439281945463 435.21969471635Q1057.3336232558017 435.21969471635 1051.7469771403075 432.8460937760882Q1046.1603310248133 430.4435464828964 1041.9920562028901 426.2752716609733Q1037.7948350280371 422.1069968390501 1035.4212340877752 416.491404370626Q1033.0186867945836 410.9047582551317 1033.0186867945836 404.594453316387L1033.0186867945836 404.594453316387L1033.0186867945836 403.5813309638362Q1033.0186867945836 397.2710260250915 1035.4212340877752 391.6843799095973Q1037.7948350280371 386.0687874411731 1041.9920562028901 381.90051261925Q1046.1603310248133 377.7322377973269 1051.7469771403075 375.3296905041351Q1057.3336232558017 372.9560895638733 1063.6439281945463 372.9560895638733L1063.6439281945463 372.9560895638733L1090.1298411255166 372.9560895638733L1090.1298411255166 356.8619173347812Q1090.1298411255166 353.0988914538783 1088.6825234790153 349.79900721985587Q1087.2641521854443 346.4991229858334 1084.8326585393224 344.0386829867815Q1082.3722185402708 341.6071893406597 1079.0723343062482 340.1888180470886Q1075.7724500722256 338.7415004005876 1072.009424191323 338.7415004005876L1072.009424191323 338.7415004005876L1064.6859969000275 338.7415004005876Q1060.9229710191244 338.7415004005876 1057.594140432172 340.1888180470886Q1054.2942561981495 341.6071893406597 1051.8627625520276 344.0386829867815Q1049.4023225529759 346.4991229858334 1047.9839512594049 349.79900721985587Q1046.5655799658339 353.0988914538783 1046.5655799658339 356.8619173347812L1046.5655799658339 356.8619173347812L1046.5655799658339 360.62494321568397L1034.0318091471345 358.5986985105825L1034.0318091471345 357.5855761580317Q1034.0318091471345 351.275271219287 1036.4343564403262 345.6886251037928Q1038.8369037335178 340.0730326353686 1043.005178555441 335.9047578134455Q1047.1734533773642 331.7364829915223 1052.7600994928584 329.3339356983305Q1058.3756919612824 326.9603347580687 1064.6859969000275 326.9603347580687L1064.6859969000275 326.9603347580687L1072.009424191323 326.9603347580687Q1078.3197291300676 326.9603347580687 1083.9063752455618 329.3339356983305Q1089.493021361056 331.7364829915223 1093.6902425359094 335.9047578134455Q1097.8585173578322 340.0730326353686 1100.232118298094 345.6886251037928Q1102.6346655912857 351.275271219287 1102.6346655912857 357.5855761580317L1102.6346655912857 357.5855761580317L1102.6346655912857 433.1934500112485ZM1090.1298411255166 405.3181121396376L1090.1298411255166 382.7110105012906L1063.6439281945463 382.7110105012906Q1059.8809023136437 382.7110105012906 1056.5810180796211 384.1293817948616Q1053.281133845599 385.57669944136273 1050.8206938465469 388.06608579334454Q1048.389200200425 390.55547214532646 1046.970828906854 393.8553563793489Q1045.552457613283 397.15524061337146 1045.552457613283 400.94721284720424L1045.552457613283 400.94721284720424L1045.552457613283 405.3181121396376Q1045.552457613283 409.0811380205404 1046.970828906854 412.3810222545628Q1048.389200200425 415.6809064885854 1050.8206938465469 418.1413464876372Q1053.281133845599 420.572840133759 1056.5810180796211 421.9912114273301Q1059.8809023136437 423.4095827209011 1063.6439281945463 423.4095827209011L1063.6439281945463 423.4095827209011L1072.009424191323 423.4095827209011Q1075.7724500722256 423.4095827209011 1079.0723343062482 421.9912114273301Q1082.3722185402708 420.572840133759 1084.8326585393224 418.1413464876372Q1087.2641521854443 415.6809064885854 1088.6825234790153 412.3810222545628Q1090.1298411255166 409.0811380205404 1090.1298411255166 405.3181121396376L1090.1298411255166 405.3181121396376ZM1199.3154843775583 406.7364834332086L1199.3154843775583 406.7364834332086Q1199.3154843775583 413.0467883719533 1196.7682053197163 418.2860782522873Q1194.2209262618744 423.5253681326212 1189.8500269694414 427.288394013524Q1185.479127677008 431.0514198944269 1179.7188034439337 433.1355573053884Q1173.9584792108594 435.21969471635 1167.6481742721148 435.21969471635L1167.6481742721148 435.21969471635L1159.3116246282684 435.21969471635Q1153.0013196895238 435.21969471635 1147.2699418093794 432.8460937760882Q1141.5096175763051 430.4435464828964 1137.1676646368019 426.2752716609733Q1132.8546580502284 422.1069968390501 1130.2494862865265 416.491404370626Q1127.6732608757547 410.9047582551317 1127.6732608757547 404.594453316387L1127.6732608757547 404.594453316387L1127.6732608757547 400.4261784944639L1140.178085341524 398.3999337893624L1140.178085341524 405.3181121396376Q1140.178085341524 409.0811380205404 1141.7701347526754 412.3810222545628Q1143.3332378108962 415.6809064885854 1145.9963022804586 418.1413464876372Q1148.6304203970903 420.572840133759 1152.103982748693 421.9912114273301Q1155.5485987473658 423.4095827209011 1159.3116246282684 423.4095827209011L1159.3116246282684 423.4095827209011L1167.6481742721148 423.4095827209011Q1171.4401465059473 423.4095827209011 1174.88476250462 422.30962130956027Q1178.3583248562227 421.18071354528945 1181.0503356787149 419.09657613432796Q1183.7423465012066 417.01243872336636 1185.3054495594279 414.0599107245041Q1186.897498970579 411.10738272564186 1186.897498970579 407.3443568447391L1186.897498970579 407.3443568447391Q1186.897498970579 401.7577107292449 1184.4660053244575 398.19730931885215Q1182.0055653254053 394.63690790845953 1177.9820222681324 392.23436061526775Q1173.9584792108594 389.83181332207596 1168.8349747422458 388.2687102638548Q1163.6825239207014 386.67666085270355 1158.2985022757175 385.1135577944824Q1152.9144806307336 383.52150838333125 1147.7620298091897 381.49526367822966Q1142.638525340576 379.4690189731282 1138.6149822833027 376.1401883861756Q1134.5914392260297 372.8403041521532 1132.130999226978 367.86153144818945Q1129.699505580856 362.8827587442257 1129.699505580856 355.4435460412101L1129.699505580856 355.4435460412101Q1129.699505580856 349.1332411024654 1132.130999226978 343.8939512221315Q1134.5914392260297 338.6546613417976 1138.759714047953 334.8916354608947Q1142.9279888698761 331.1286095799919 1148.48568863244 329.0444721690303Q1154.0144420420743 326.9603347580687 1160.3247469808193 326.9603347580687L1160.3247469808193 326.9603347580687L1167.6481742721148 326.9603347580687Q1173.9584792108594 326.9603347580687 1179.5740716792834 329.3339356983305Q1185.160717794778 331.7364829915223 1189.3289926167008 335.9047578134455Q1193.497267438624 340.0730326353686 1195.8998147318157 345.6886251037928Q1198.3023620250078 351.275271219287 1198.3023620250078 357.5855761580317L1198.3023620250078 357.5855761580317L1198.3023620250078 357.990825099052L1185.7685912063084 360.0170698041536L1185.7685912063084 356.8619173347812Q1185.7685912063084 353.0988914538783 1184.350219912737 349.79900721985587Q1182.931848619166 346.4991229858334 1180.4714086201143 344.0386829867815Q1178.0399149739924 341.6071893406597 1174.7400307399698 340.1888180470886Q1171.4401465059473 338.7415004005876 1167.6481742721148 338.7415004005876L1167.6481742721148 338.7415004005876L1160.3247469808193 338.7415004005876Q1156.5617210999162 338.7415004005876 1153.2618368658937 339.8704081648584Q1149.9619526318716 340.99931592912924 1147.5015126328194 343.08345334009084Q1145.070018986698 345.16759075105244 1143.6516476931265 348.1201187499146Q1142.2332763995555 351.07264674877683 1142.2332763995555 354.8356726296797L1142.2332763995555 354.8356726296797Q1142.2332763995555 360.21969427466365 1144.6647700456774 363.63536392040623Q1147.0962636917993 367.0510335661488 1151.1198067490723 369.3956881534806Q1155.1433498063452 371.74034274081237 1160.295800627889 373.3034457990335Q1165.4193050965032 374.8954952101848 1170.774380388557 376.57438368012595Q1176.1005093276808 378.25327215006723 1181.2529601492251 380.36635591395884Q1186.3764646178388 382.50838603078046 1190.4000076751117 385.8661629706629Q1194.4235507323847 389.2239399105455 1196.8550443785066 394.2606053203692Q1199.3154843775583 399.2972707301931 1199.3154843775583 406.7364834332086Z " fill="#ccd6f6" transform="matrix(0.7295828137648432,0,0,0.7295828137648434,0,37.18990842908582)"/></g></svg>